PathFileType	4	(X/Y/Z)	/home/utkubuntu/opensim/opensim_mycode/release_code/bioimitation/imitation_envs/data/02905/02905_PRE/experimental_data/static.trc
DataRate	CameraRate	NumFrames	NumMarkers	Units	OrigDataRate	OrigDataStartFrame	OrigNumFrames
100.000000	100.000000	4	53	mm	100.000000	625	1000
Frame#	Time	C7			CLAV			LANK			LASI			LBHD			LELB			LFHD			LFIN			LFMH			LHEE			LKNE			LKNI			LMED			LMET			LMIF			LPSI			LSHO			LTAD			LTHAP			LTHI			LTIAD			LTIB			LTOE			LTTU			LWRA			LWRB			RANK			RASI			RBAK			RBHD			RELB			RFHD			RFIN			RFMH			RHEE			RKNE			RKNI			RMED			RMET			RMIF			RPSI			RSHO			RTAD			RTHAP			RTHI			RTIAD			RTIB			RTOE			RTTU			RWRA			RWRB			STRN			T10			
		X1	Y1	Z1	X2	Y2	Z2	X3	Y3	Z3	X4	Y4	Z4	X5	Y5	Z5	X6	Y6	Z6	X7	Y7	Z7	X8	Y8	Z8	X9	Y9	Z9	X10	Y10	Z10	X11	Y11	Z11	X12	Y12	Z12	X13	Y13	Z13	X14	Y14	Z14	X15	Y15	Z15	X16	Y16	Z16	X17	Y17	Z17	X18	Y18	Z18	X19	Y19	Z19	X20	Y20	Z20	X21	Y21	Z21	X22	Y22	Z22	X23	Y23	Z23	X24	Y24	Z24	X25	Y25	Z25	X26	Y26	Z26	X27	Y27	Z27	X28	Y28	Z28	X29	Y29	Z29	X30	Y30	Z30	X31	Y31	Z31	X32	Y32	Z32	X33	Y33	Z33	X34	Y34	Z34	X35	Y35	Z35	X36	Y36	Z36	X37	Y37	Z37	X38	Y38	Z38	X39	Y39	Z39	X40	Y40	Z40	X41	Y41	Z41	X42	Y42	Z42	X43	Y43	Z43	X44	Y44	Z44	X45	Y45	Z45	X46	Y46	Z46	X47	Y47	Z47	X48	Y48	Z48	X49	Y49	Z49	X50	Y50	Z50	X51	Y51	Z51	X52	Y52	Z52	X53	Y53	Z53	

626	6.25	770.5170288085938	1444.776977539062	-284.3640136718747	874.0809936523438	1350.5400390625	-265.6870117187497	723.7949829101562	77.97599792480477	-362.4039916992188	898.9650268554688	944.9050292968751	-360.5299987792966	803.14501953125	1538.159057617188	-356.5209960937497	720.530029296875	1097.947021484375	-554.679992675781	927.3330078125	1635.052001953125	-323.2279968261715	802.1749877929688	852.5819702148439	-681.4689941406248	862.7949829101562	36.32400131225592	-290.3699951171875	672.1420288085938	39.32099914550788	-333.9989929199219	782.5709838867188	469.3450012207032	-383.397003173828	778.1589965820312	458.2300109863282	-267.3919982910155	729.4650268554688	88.29399871826178	-282.1709899902344	833.7550048828125	27.52599906921395	-384.1690063476562	803.8079833984375	73.73000335693366	-329.3099975585938	732.6270141601562	959.0139770507814	-303.6879882812498	804.010986328125	1383.635986328125	-437.9549865722653	858.072998046875	527.8229980468751	-314.845001220703	904.7869873046875	692.7189941406251	-319.0880126953123	808.6829833984375	565.4589843750001	-430.2640075683593	776.9990234375	208.1150054931641	-323.0350036621093	743.780029296875	299.1780090332032	-435.1220092773437	858.9229736328125	40.77000045776374	-335.8880004882812	811.7540283203125	384.0020141601563	-324.8389892578124	829.7160034179688	888.8330078125001	-635.523986816406	764.2650146484375	889.0209960937501	-660.9630126953123	713.073974609375	75.02700042724612	-101.5899963378906	876.8629760742188	957.9959716796875	-115.0810012817381	692.6649780273438	1339.81494140625	-162.013000488281	788.4199829101562	1526.449951171875	-197.2299957275387	673.9400024414062	1105.89697265625	-18.47599983215308	909.2030029296875	1621.178955078125	-199.5469970703121	731.7050170898438	860.1589965820312	161.0410003662111	854.4710083007812	36.14400100708011	-159.3249969482422	653.6119995117188	35.11700057983401	-131.3269958496094	796.5789794921875	475.0060119628906	-93.98500061035146	794.114990234375	463.9880065917969	-213.5350036621093	715.656005859375	84.89900207519536	-184.7740020751953	813.905029296875	26.7469997406006	-65.98100280761719	802.1389770507812	67.41999816894534	-130.3999938964843	723.6300048828125	965.7490234375	-201.9620056152341	771.3569946289062	1394.822998046875	-101.7910003662106	873.4290161132812	553.6900024414062	-140.0939941406249	907.3150024414062	719.9349975585938	-121.0179977416991	806.1110229492188	588.8660278320312	-41.17900085449206	787.718994140625	256.3649902343751	-143.5809936523437	738.0919799804688	297.9339904785156	-35.36500167846673	846.864013671875	39.52299880981448	-114	828.3489990234375	394.7210083007813	-144.9420013427734	763.9329833984375	901.0650024414062	111.4029998779299	692.958984375	896.0139770507812	120.9940032958986	895.822021484375	1191.781982421875	-255.8059997558591	691.0700073242188	1146.781982421875	-271.7770080566404	
627	6.26	770.4520263671875	1444.764038085938	-284.410003662109	874.0490112304688	1350.535034179688	-265.710998535156	723.7960205078125	77.96900177001962	-362.4079895019531	898.968017578125	944.9000244140626	-360.5929870605466	803.0869750976562	1538.14501953125	-356.576995849609	720.6019897460938	1097.883056640625	-554.6939697265623	927.2789916992188	1635.026000976562	-323.274993896484	802.3939819335938	852.5209960937501	-681.4050292968748	862.7960205078125	36.32199859619147	-290.3739929199219	672.14501953125	39.31700134277351	-333.9989929199219	782.5490112304688	469.3370056152344	-383.4349975585936	778.1420288085938	458.2260131835938	-267.4240112304686	729.4660034179688	88.29299926757818	-282.1759948730469	833.7589721679688	27.51700019836434	-384.1700134277344	803.8040161132812	73.72499847412116	-329.3160095214844	732.60498046875	959.0079956054689	-303.7279968261716	803.9990234375	1383.608032226562	-437.992004394531	858.0540161132812	527.8099975585939	-314.8919982910155	904.7760009765625	692.7039794921876	-319.1489868164061	808.6719970703125	565.4559936523439	-430.3049926757811	777.0330200195312	208.1159973144532	-323.0499877929687	743.7579956054688	299.1640014648439	-435.1430053710937	858.9219970703125	40.7669982910157	-335.8980102539062	811.7360229492188	383.9920043945313	-324.8760070800781	829.8880004882812	888.7899780273439	-635.4630126953123	764.447021484375	888.9509887695314	-660.9240112304685	713.083984375	75.02600097656253	-101.5930023193359	876.8909912109375	957.97900390625	-115.1330032348631	692.6279907226562	1339.81005859375	-162.0269927978513	788.3590087890625	1526.43701171875	-197.2839965820309	673.9639892578125	1105.905029296875	-18.4559993743894	909.135986328125	1621.156982421875	-199.5890045166012	731.8140258789062	860.2069702148438	161.0899963378908	854.4749755859375	36.1360015869141	-159.3309936523438	653.6110229492188	35.12300109863284	-131.3209991455078	796.6190185546875	474.9960021972656	-94.00099945068349	794.1500244140625	463.9729919433594	-213.5540008544921	715.6619873046875	84.89299774169926	-184.7790069580078	813.906005859375	26.74500083923341	-65.98699951171875	802.1400146484375	67.41300201416018	-130.4040069580078	723.6669921875	965.7379760742188	-201.9859924316404	771.3289794921875	1394.840942382812	-101.8320007324216	873.4730224609375	553.6820068359375	-140.1269989013671	907.3569946289062	719.927001953125	-121.0650024414061	806.1810302734375	588.8660278320312	-41.20999908447253	787.7360229492188	256.3519897460938	-143.5959930419921	738.1229858398438	297.9289855957031	-35.37400054931634	846.8670043945312	39.51800155639651	-114.0039978027344	828.3820190429688	394.7040100097657	-144.9620056152343	764.0280151367188	901.114013671875	111.4369964599611	693.0469970703125	896.0469970703125	121.0319976806643	895.7990112304688	1191.786010742188	-255.8240051269529	691.0700073242188	1146.746948242188	-271.8039855957029	
628	6.27	770.39697265625	1444.746948242188	-284.4559936523434	874.0239868164062	1350.525024414062	-265.7330017089841	723.7990112304688	77.96099853515634	-362.4119873046875	898.9739990234375	944.8969726562501	-360.6549987792966	803.0390014648438	1538.1259765625	-356.6380004882809	720.6810302734375	1097.817016601563	-554.710021972656	927.2249755859375	1634.998046875	-323.3259887695309	802.6190185546875	852.4589843750001	-681.3419799804685	862.7979736328125	36.31999969482428	-290.3789978027344	672.1480102539062	39.31399917602546	-333.9989929199219	782.5280151367188	469.3269958496094	-383.4719848632811	778.1300048828125	458.2189941406251	-267.4570007324218	729.468017578125	88.29100036621099	-282.1820068359375	833.7630004882812	27.5079994201661	-384.1690063476562	803.802001953125	73.72100067138679	-329.3240051269531	732.5910034179688	959.0009765625001	-303.763000488281	803.9920043945312	1383.577026367188	-438.0299987792966	858.031005859375	527.7949829101564	-314.9400024414061	904.7620239257812	692.6890258789064	-319.209991455078	808.6530151367188	565.4500122070314	-430.3469848632811	777.0490112304688	208.113998413086	-323.0679931640624	743.7360229492188	299.1480102539064	-435.1600036621093	858.9240112304688	40.76399993896491	-335.9079895019531	811.7210083007812	383.9830017089844	-324.9140014648437	830.06201171875	888.7459716796876	-635.3969726562498	764.6279907226562	888.8800048828126	-660.8800048828123	713.093994140625	75.02400207519534	-101.5979995727539	876.927978515625	957.9630126953125	-115.1910018920896	692.5910034179688	1339.798950195312	-162.044006347656	788.2949829101562	1526.425048828125	-197.3390045166012	673.9879760742188	1105.906982421875	-18.44400024414038	909.0709838867188	1621.141967773438	-199.6380004882809	731.926025390625	860.2449951171875	161.1280059814455	854.47900390625	36.12799835205082	-159.3370056152344	653.6110229492188	35.13000106811526	-131.3170013427734	796.6619873046875	474.9859924316406	-94.01599884033193	794.1890258789062	463.9549865722657	-213.5729980468749	715.6729736328125	84.88999938964848	-184.781997680664	813.9080200195312	26.74399948120119	-65.99400329589844	802.1439819335938	67.40899658203128	-130.4080047607422	723.6890258789062	965.72900390625	-202.0090026855466	771.2999877929688	1394.85498046875	-101.8740005493161	873.52197265625	553.676025390625	-140.1609954833983	907.4030151367188	719.9210205078125	-121.1149978637694	806.25	588.8670043945312	-41.24100112915026	787.7589721679688	256.3420104980469	-143.6109924316406	738.156982421875	297.9240112304688	-35.38199996948236	846.8670043945312	39.51300048828128	-114.0090026855469	828.4190063476562	394.6849975585938	-144.9810028076171	764.1279907226562	901.1589965820312	111.4670028686525	693.1430053710938	896.0709838867188	121.0609970092775	895.7780151367188	1191.7900390625	-255.8459930419919	691.06298828125	1146.714965820312	-271.825988769531	
629	6.28	770.3460083007812	1444.72998046875	-284.5100097656247	874.0079956054688	1350.514038085938	-265.752990722656	723.801025390625	77.95300292968759	-362.4169921875	898.9840087890625	944.8969726562501	-360.7160034179685	803.0009765625	1538.10205078125	-356.7049865722653	720.7670288085938	1097.7509765625	-554.7290039062498	927.176025390625	1634.968994140625	-323.378997802734	802.8410034179688	852.3959960937501	-681.2819824218748	862.7999877929688	36.31999969482428	-290.3829956054688	672.1510009765625	39.31100082397468	-334.0010070800781	782.510986328125	469.3160095214844	-383.5050048828124	778.1270141601562	458.2130126953126	-267.490997314453	729.4669799804688	88.28900146484381	-282.18798828125	833.7639770507812	27.49900054931649	-384.1690063476562	803.801025390625	73.71800231933601	-329.3320007324219	732.5880126953125	958.9899902343751	-303.794006347656	803.9910278320312	1383.5439453125	-438.0729980468747	858.0089721679688	527.7830200195314	-314.9869995117186	904.7509765625	692.6749877929689	-319.2730102539061	808.6290283203125	565.4420166015626	-430.3900146484374	777.0540161132812	208.1100006103516	-323.0849914550781	743.7210083007812	299.134002685547	-435.1770019531249	858.9240112304688	40.75999832153327	-335.9150085449219	811.7119750976562	383.9769897460938	-324.9500122070312	830.239013671875	888.7020263671876	-635.3289794921873	764.8099975585938	888.8079833984376	-660.8339843749998	713.10498046875	75.02200317382815	-101.6019973754883	876.97802734375	957.9509887695312	-115.251998901367	692.552001953125	1339.781982421875	-162.0709991455075	788.2269897460938	1526.416015625	-197.3950042724606	674.0170288085938	1105.899047851562	-18.44400024414038	909.010009765625	1621.136962890625	-199.6950073242184	732.0399780273438	860.27197265625	161.1549987792971	854.4819946289062	36.11899948120121	-159.3419952392578	653.6129760742188	35.13600158691409	-131.3150024414062	796.7100219726562	474.9769897460938	-94.03199768066396	794.22998046875	463.9360046386719	-213.5939941406249	715.6849975585938	84.89099884033207	-184.7839965820312	813.9089965820312	26.74399948120119	-66	802.1480102539062	67.40699768066409	-130.4120025634765	723.7000122070312	965.718017578125	-202.0319976806638	771.2689819335938	1394.866943359375	-101.915000915527	873.5670166015625	553.6680297851562	-140.1970062255858	907.4500122070312	719.916015625	-121.167999267578	806.3179931640625	588.8660278320312	-41.27399826049792	787.7849731445312	256.3340148925782	-143.6249999999999	738.1959838867188	297.9209899902344	-35.39099884033197	846.8660278320312	39.50799942016604	-114.0149993896484	828.4559936523438	394.6669921875001	-145.001007080078	764.2329711914062	901.1959838867188	111.4899978637697	693.2459716796875	896.0850219726562	121.0800018310549	895.7550048828125	1191.7939453125	-255.8710021972654	691.0469970703125	1146.68701171875	-271.8410034179685	
